<svg width="274" height="80" viewBox="0 0 274 80" fill="none" xmlns="http://www.w3.org/2000/svg">
<g clip-path="url(#clip0_17_1334)">
<path d="M29.064 1.65537e-05H10.1236C7.43866 1.65537e-05 4.86368 1.05507 2.96514 2.93308C1.06659 4.81109 0 7.35821 0 10.0141L0 28.7496C0 30.0647 0.261855 31.3669 0.770614 32.5818C1.27937 33.7968 2.02507 34.9007 2.96514 35.8306C4.86368 37.7086 7.43866 38.7637 10.1236 38.7637H15.9585C16.3483 36.6486 17.1182 34.6198 18.2317 32.7734H10.1236C9.04963 32.7734 8.01964 32.3514 7.26022 31.6002C6.5008 30.849 6.07416 29.8302 6.07416 28.7678V10.0141C6.0766 8.95334 6.50431 7.93682 7.26347 7.18759C8.02262 6.43835 9.05122 6.01758 10.1236 6.01758H29.064C29.5965 6.01519 30.1243 6.11673 30.6171 6.31639C31.11 6.51605 31.5581 6.80991 31.936 7.18114C32.3139 7.55237 32.614 7.99368 32.8192 8.47981C33.0244 8.96593 33.1306 9.48732 33.1318 10.0141V18.2075C33.8237 17.5653 34.4811 16.8876 35.1013 16.1773C36.1492 14.961 37.6077 14.162 39.206 13.9287V10.0141C39.206 8.69752 38.9435 7.39383 38.4336 6.17768C37.9237 4.96152 37.1763 3.85677 36.2343 2.92663C35.2923 1.9965 34.1741 1.25925 32.9437 0.757063C31.7134 0.254879 30.395 -0.00237727 29.064 1.65537e-05Z" fill="white"/>
<path d="M34.3834 65.5924L33.1318 65.8109V69.5252C33.1318 70.5884 32.7055 71.6082 31.9463 72.3609C31.1872 73.1135 30.1572 73.5376 29.0824 73.54H10.1236C9.04878 73.5376 8.01881 73.1135 7.25966 72.3609C6.5005 71.6082 6.07416 70.5884 6.07416 69.5252V50.7989C6.07416 49.7365 6.5008 48.7177 7.26022 47.9665C8.01964 47.2153 9.04963 46.7932 10.1236 46.7932H16.4094C15.9354 45.1968 15.6968 43.5411 15.7008 41.8772C15.7008 41.5222 15.7008 41.158 15.7008 40.803H10.1236C8.79416 40.803 7.47772 41.062 6.24947 41.5653C5.02122 42.0685 3.9052 42.8061 2.96514 43.736C2.02507 44.6659 1.27937 45.7699 0.770614 46.9848C0.261855 48.1998 0 49.502 0 50.8171L0 69.5252C0 72.1812 1.06659 74.7283 2.96514 76.6063C4.86368 78.4843 7.43866 79.5393 10.1236 79.5393H29.064C30.3934 79.5393 31.7098 79.2803 32.9381 78.7771C34.1663 78.2738 35.2824 77.5362 36.2224 76.6063C37.1625 75.6764 37.9082 74.5724 38.4169 73.3575C38.9257 72.1425 39.1876 70.8403 39.1876 69.5252V65.1008C37.5757 65.141 35.9695 65.3054 34.3834 65.5924Z" fill="white"/>
<path d="M70.2856 40.7754H64.69C64.69 41.1304 64.69 41.4946 64.69 41.8587C64.6952 43.53 64.4502 45.1927 63.963 46.793H70.2488C71.3236 46.793 72.3546 47.2147 73.1155 47.9656C73.8763 48.7166 74.305 49.7354 74.3075 50.7986V69.525C74.305 70.589 73.8767 71.6088 73.116 72.3612C72.3554 73.1136 71.3245 73.5373 70.2488 73.5397H51.3545C50.2797 73.5373 49.2497 73.1133 48.4905 72.3606C47.7314 71.608 47.305 70.5882 47.305 69.525V65.8015L46.0718 65.5922C44.4687 65.3164 42.848 65.1521 41.2217 65.1006V69.525C41.2217 72.1809 42.2883 74.728 44.1868 76.606C46.0854 78.484 48.6603 79.5391 51.3453 79.5391H70.2856C72.9706 79.5391 75.5456 78.484 77.4441 76.606C79.3427 74.728 80.4092 72.1809 80.4092 69.525V50.7986C80.4104 49.4828 80.1495 48.1796 79.6413 46.9636C79.133 45.7476 78.3875 44.6425 77.4474 43.7117C76.5072 42.7808 75.3907 42.0424 74.1619 41.5385C72.933 41.0347 71.6159 40.7754 70.2856 40.7754Z" fill="white"/>
<path d="M70.2855 0H51.3543C48.6694 0 46.0944 1.05505 44.1958 2.93306C42.2973 4.81107 41.2307 7.3582 41.2307 10.0141V13.9196C42.8372 14.1502 44.3033 14.9531 45.3538 16.1773C45.9683 16.8898 46.6227 17.5676 47.3141 18.2075V10.0141C47.3165 8.95248 47.7439 7.93503 48.5028 7.18434C49.2617 6.43366 50.2903 6.01087 51.3635 6.00846H70.2855C71.3596 6.01085 72.3891 6.43336 73.1494 7.18378C73.9098 7.93421 74.3393 8.95164 74.3441 10.0141V28.7769C74.3368 29.8378 73.9063 30.8529 73.1462 31.6013C72.3861 32.3498 71.358 32.771 70.2855 32.7734H62.205C63.302 34.6353 64.0532 36.6764 64.423 38.8001H70.2487C72.9336 38.8001 75.5086 37.745 77.4071 35.867C79.3057 33.989 80.3723 31.4419 80.3723 28.786V10.0141C80.3723 7.36449 79.3107 4.82287 77.4201 2.94591C75.5296 1.06894 72.964 0.00963494 70.2855 0Z" fill="white"/>
<path d="M59.8212 41.8773C59.8492 43.5693 59.5037 45.247 58.8088 46.7933C57.1154 50.4348 53.5078 52.6652 48.9061 52.6652C48.3686 52.6643 47.8323 52.6124 47.3047 52.5105C45.4626 52.0896 43.7432 51.2547 42.2798 50.0707C43.2989 53.858 44.8477 57.486 46.8814 60.8495L46.4672 60.7767L45.6205 60.6583C45.2064 60.5946 44.783 60.54 44.3597 60.4944L43.513 60.4125C42.7491 60.3488 41.976 60.3033 41.203 60.2851H40.1354H39.2151C37.7305 60.3204 36.2493 60.442 34.7791 60.6492L33.5366 60.8495C35.5774 57.4863 37.1266 53.8543 38.1383 50.0616C36.6803 51.2453 34.9677 52.083 33.1317 52.5105C32.6042 52.6133 32.0679 52.6652 31.5303 52.6652C26.9287 52.6652 23.321 50.3984 21.6276 46.7933C20.9143 45.251 20.55 43.5733 20.56 41.8773C20.56 41.5132 20.56 41.1581 20.606 40.8031C20.6633 40.1279 20.7741 39.4583 20.9374 38.8003C21.5445 36.5812 22.6414 34.5229 24.1493 32.7736C26.3897 30.2599 28.8742 27.9699 31.5671 25.9367L33.1317 24.6531C35.1762 23.0431 37.0761 21.2613 38.8101 19.3274C38.9273 19.1932 39.0638 19.0766 39.2151 18.9814C39.4897 18.8053 39.8082 18.7076 40.1354 18.6992H40.2366C40.5639 18.7071 40.8825 18.8048 41.157 18.9814C41.312 19.0715 41.4493 19.1887 41.5619 19.3274C43.2982 21.2591 45.1979 23.0408 47.2403 24.6531L48.7957 25.9185C51.521 27.9501 54.0337 30.2466 56.2963 32.7736C57.7973 34.5179 58.888 36.5701 59.4899 38.782C59.6541 39.4368 59.7649 40.1035 59.8212 40.7758C59.8406 41.1427 59.8406 41.5104 59.8212 41.8773Z" fill="#C72725"/>
<path d="M96.8468 32H91.3854L99.707 7.89443H106.275L114.585 32H109.123L103.085 13.4029H102.897L96.8468 32ZM96.5055 22.5249H109.406V26.5033H96.5055V22.5249ZM128.986 24.3022V13.9208H134V32H129.186V28.7161H128.997C128.589 29.7754 127.911 30.6268 126.961 31.2702C126.02 31.9137 124.87 32.2354 123.512 32.2354C122.304 32.2354 121.241 31.9608 120.323 31.4115C119.405 30.8622 118.687 30.0814 118.169 29.0692C117.659 28.0569 117.4 26.8446 117.392 25.4322V13.9208H122.406V24.5376C122.414 25.6048 122.7 26.4483 123.265 27.0682C123.83 27.6881 124.587 27.9981 125.537 27.9981C126.141 27.9981 126.706 27.8608 127.232 27.5861C127.758 27.3037 128.181 26.8878 128.503 26.3385C128.833 25.7892 128.993 25.1105 128.986 24.3022ZM147.627 13.9208V17.6873H136.739V13.9208H147.627ZM139.211 9.58935H144.225V26.4444C144.225 26.9074 144.296 27.2683 144.437 27.5273C144.578 27.7784 144.775 27.9549 145.026 28.0569C145.285 28.159 145.583 28.21 145.92 28.21C146.156 28.21 146.391 28.1903 146.626 28.1511C146.862 28.104 147.042 28.0687 147.168 28.0452L147.956 31.7764C147.705 31.8548 147.352 31.9451 146.897 32.0471C146.442 32.1569 145.889 32.2236 145.237 32.2472C144.029 32.2943 142.97 32.1334 142.059 31.7646C141.157 31.3958 140.455 30.823 139.953 30.0461C139.45 29.2693 139.203 28.2884 139.211 27.1036V9.58935ZM158.867 32.3531C157.039 32.3531 155.458 31.9647 154.124 31.1878C152.798 30.4032 151.774 29.3124 151.052 27.9157C150.33 26.5111 149.969 24.8829 149.969 23.031C149.969 21.1635 150.33 19.5313 151.052 18.1346C151.774 16.73 152.798 15.6393 154.124 14.8624C155.458 14.0778 157.039 13.6854 158.867 13.6854C160.696 13.6854 162.273 14.0778 163.599 14.8624C164.933 15.6393 165.961 16.73 166.683 18.1346C167.405 19.5313 167.766 21.1635 167.766 23.031C167.766 24.8829 167.405 26.5111 166.683 27.9157C165.961 29.3124 164.933 30.4032 163.599 31.1878C162.273 31.9647 160.696 32.3531 158.867 32.3531ZM158.891 28.4689C159.723 28.4689 160.417 28.2335 160.974 27.7627C161.531 27.284 161.951 26.6327 162.234 25.8088C162.524 24.9849 162.669 24.0472 162.669 22.9957C162.669 21.9442 162.524 21.0065 162.234 20.1826C161.951 19.3587 161.531 18.7074 160.974 18.2287C160.417 17.7501 159.723 17.5108 158.891 17.5108C158.051 17.5108 157.345 17.7501 156.772 18.2287C156.207 18.7074 155.78 19.3587 155.489 20.1826C155.207 21.0065 155.066 21.9442 155.066 22.9957C155.066 24.0472 155.207 24.9849 155.489 25.8088C155.78 26.6327 156.207 27.284 156.772 27.7627C157.345 28.2335 158.051 28.4689 158.891 28.4689ZM187.104 15.6864C186.94 15.1135 186.708 14.6074 186.41 14.168C186.112 13.7207 185.747 13.3441 185.315 13.038C184.892 12.7242 184.405 12.4848 183.856 12.3201C183.314 12.1553 182.714 12.0729 182.055 12.0729C180.823 12.0729 179.74 12.3789 178.806 12.991C177.88 13.603 177.159 14.4936 176.641 15.6628C176.123 16.8242 175.864 18.2444 175.864 19.9237C175.864 21.6029 176.119 23.031 176.629 24.2081C177.139 25.3851 177.861 26.2836 178.795 26.9035C179.728 27.5155 180.831 27.8215 182.102 27.8215C183.256 27.8215 184.24 27.6175 185.056 27.2095C185.88 26.7936 186.508 26.209 186.94 25.4557C187.379 24.7024 187.599 23.8118 187.599 22.7839L188.635 22.9369H182.42V19.0998H192.507V22.1365C192.507 24.2551 192.06 26.0756 191.165 27.5979C190.271 29.1124 189.039 30.2815 187.469 31.1055C185.9 31.9215 184.103 32.3296 182.079 32.3296C179.819 32.3296 177.833 31.8313 176.123 30.8347C174.412 29.8303 173.078 28.4061 172.121 26.5621C171.171 24.7103 170.697 22.5131 170.697 19.9708C170.697 18.0169 170.979 16.2749 171.544 14.7447C172.117 13.2068 172.917 11.9042 173.945 10.837C174.973 9.76983 176.17 8.95768 177.535 8.40055C178.901 7.84342 180.38 7.56486 181.973 7.56486C183.338 7.56486 184.609 7.76495 185.786 8.16514C186.963 8.55749 188.007 9.11461 188.917 9.83652C189.835 10.5584 190.585 11.4177 191.165 12.4142C191.746 13.4029 192.119 14.4936 192.283 15.6864H187.104ZM196.241 32V13.9208H201.102V17.0753H201.291C201.62 15.9532 202.173 15.1057 202.95 14.5329C203.727 13.9522 204.622 13.6619 205.634 13.6619C205.885 13.6619 206.156 13.6776 206.446 13.709C206.736 13.7403 206.991 13.7835 207.211 13.8384V18.2876C206.976 18.217 206.65 18.1542 206.234 18.0993C205.818 18.0443 205.438 18.0169 205.092 18.0169C204.355 18.0169 203.696 18.1777 203.115 18.4995C202.542 18.8133 202.087 19.2528 201.75 19.8177C201.42 20.3827 201.255 21.034 201.255 21.7716V32H196.241ZM209.803 32V13.9208H214.818V32H209.803ZM212.322 11.5903C211.577 11.5903 210.937 11.3431 210.404 10.8488C209.878 10.3466 209.615 9.74629 209.615 9.04791C209.615 8.35739 209.878 7.76495 210.404 7.2706C210.937 6.7684 211.577 6.5173 212.322 6.5173C213.068 6.5173 213.703 6.7684 214.229 7.2706C214.763 7.76495 215.029 8.35739 215.029 9.04791C215.029 9.74629 214.763 10.3466 214.229 10.8488C213.703 11.3431 213.068 11.5903 212.322 11.5903ZM225.496 32.2943C224.123 32.2943 222.879 31.9411 221.765 31.2349C220.659 30.5209 219.78 29.4733 219.128 28.0923C218.485 26.7034 218.163 25.0006 218.163 22.9839C218.163 20.9124 218.497 19.19 219.164 17.8168C219.831 16.4357 220.717 15.4039 221.824 14.7212C222.938 14.0307 224.158 13.6854 225.484 13.6854C226.497 13.6854 227.34 13.858 228.015 14.2033C228.698 14.5407 229.247 14.9645 229.663 15.4745C230.087 15.9767 230.408 16.4711 230.628 16.9576H230.781V7.89443H235.783V32H230.84V29.1045H230.628C230.393 29.6067 230.059 30.105 229.628 30.5993C229.204 31.0858 228.651 31.49 227.968 31.8117C227.293 32.1334 226.469 32.2943 225.496 32.2943ZM227.085 28.3041C227.893 28.3041 228.576 28.0844 229.133 27.645C229.698 27.1977 230.13 26.5739 230.428 25.7735C230.734 24.9731 230.887 24.0354 230.887 22.9604C230.887 21.8854 230.738 20.9516 230.44 20.1591C230.142 19.3665 229.71 18.7545 229.145 18.3229C228.58 17.8913 227.893 17.6755 227.085 17.6755C226.261 17.6755 225.567 17.8992 225.002 18.3465C224.437 18.7937 224.009 19.4136 223.719 20.2062C223.429 20.9987 223.283 21.9168 223.283 22.9604C223.283 24.0119 223.429 24.9417 223.719 25.75C224.017 26.5504 224.445 27.1781 225.002 27.6332C225.567 28.0805 226.261 28.3041 227.085 28.3041Z" fill="#C72725"/>
<path d="M92.6919 72V47.8944H102.202C104.031 47.8944 105.588 48.2436 106.875 48.942C108.162 49.6325 109.143 50.5937 109.818 51.8257C110.5 53.0498 110.842 54.4623 110.842 56.063C110.842 57.6638 110.496 59.0762 109.806 60.3003C109.115 61.5244 108.115 62.4778 106.805 63.1605C105.502 63.8432 103.925 64.1845 102.073 64.1845H96.0111V60.1002H101.249C102.23 60.1002 103.038 59.9315 103.674 59.5941C104.317 59.2488 104.796 58.7741 105.11 58.1699C105.431 57.5578 105.592 56.8555 105.592 56.063C105.592 55.2626 105.431 54.5643 105.11 53.9679C104.796 53.3637 104.317 52.8968 103.674 52.5672C103.03 52.2298 102.214 52.0611 101.225 52.0611H97.7885V72H92.6919ZM121.935 72.3531C120.107 72.3531 118.526 71.9647 117.192 71.1878C115.866 70.4032 114.842 69.3124 114.12 67.9157C113.398 66.5111 113.037 64.8829 113.037 63.031C113.037 61.1635 113.398 59.5313 114.12 58.1346C114.842 56.73 115.866 55.6393 117.192 54.8624C118.526 54.0778 120.107 53.6854 121.935 53.6854C123.764 53.6854 125.341 54.0778 126.667 54.8624C128.001 55.6393 129.029 56.73 129.751 58.1346C130.473 59.5313 130.834 61.1635 130.834 63.031C130.834 64.8829 130.473 66.5111 129.751 67.9157C129.029 69.3124 128.001 70.4032 126.667 71.1878C125.341 71.9647 123.764 72.3531 121.935 72.3531ZM121.959 68.4689C122.791 68.4689 123.485 68.2335 124.042 67.7627C124.599 67.284 125.019 66.6327 125.302 65.8088C125.592 64.9849 125.737 64.0472 125.737 62.9957C125.737 61.9442 125.592 61.0065 125.302 60.1826C125.019 59.3587 124.599 58.7074 124.042 58.2287C123.485 57.7501 122.791 57.5108 121.959 57.5108C121.119 57.5108 120.413 57.7501 119.84 58.2287C119.275 58.7074 118.847 59.3587 118.557 60.1826C118.275 61.0065 118.133 61.9442 118.133 62.9957C118.133 64.0472 118.275 64.9849 118.557 65.8088C118.847 66.6327 119.275 67.284 119.84 67.7627C120.413 68.2335 121.119 68.4689 121.959 68.4689ZM138.637 66.7975L138.649 60.7829H139.379L145.17 53.9208H150.925L143.145 63.0075H141.957L138.637 66.7975ZM134.094 72V47.8944H139.108V72H134.094ZM145.393 72L140.073 64.1257L143.416 60.5828L151.267 72H145.393ZM160.88 72.3531C159.02 72.3531 157.42 71.9765 156.078 71.2232C154.744 70.462 153.716 69.387 152.994 67.9981C152.272 66.6014 151.911 64.9496 151.911 63.0428C151.911 61.1831 152.272 59.5509 152.994 58.1464C153.716 56.7418 154.732 55.6471 156.043 54.8624C157.361 54.0778 158.907 53.6854 160.68 53.6854C161.873 53.6854 162.983 53.8777 164.011 54.2622C165.047 54.6388 165.949 55.2077 166.718 55.9689C167.495 56.73 168.099 57.6873 168.531 58.8408C168.962 59.9864 169.178 61.3283 169.178 62.8662V64.2434H153.912V61.136H164.458C164.458 60.4141 164.301 59.7746 163.988 59.2175C163.674 58.6603 163.238 58.2248 162.681 57.911C162.132 57.5892 161.492 57.4284 160.763 57.4284C160.001 57.4284 159.327 57.6049 158.738 57.958C158.157 58.3033 157.702 58.7702 157.373 59.3587C157.043 59.9394 156.874 60.5867 156.867 61.3008V64.2551C156.867 65.1497 157.031 65.9226 157.361 66.5739C157.698 67.2252 158.173 67.7274 158.785 68.0805C159.397 68.4336 160.123 68.6102 160.963 68.6102C161.52 68.6102 162.03 68.5317 162.493 68.3747C162.956 68.2178 163.352 67.9824 163.682 67.6685C164.011 67.3547 164.262 66.9702 164.435 66.515L169.072 66.8211C168.837 67.9353 168.354 68.9083 167.625 69.7401C166.903 70.564 165.969 71.2075 164.823 71.6704C163.685 72.1255 162.371 72.3531 160.88 72.3531ZM172.45 72V53.9208H177.312V57.0753H177.5C177.829 55.9532 178.383 55.1057 179.159 54.5329C179.936 53.9522 180.831 53.6619 181.843 53.6619C182.094 53.6619 182.365 53.6776 182.655 53.709C182.946 53.7403 183.201 53.7835 183.42 53.8384V58.2876C183.185 58.217 182.859 58.1542 182.443 58.0993C182.028 58.0443 181.647 58.0169 181.302 58.0169C180.564 58.0169 179.905 58.1777 179.324 58.4995C178.751 58.8133 178.296 59.2528 177.959 59.8177C177.629 60.3827 177.465 61.034 177.465 61.7716V72H172.45Z" fill="white"/>
</g>
<defs>
<clipPath id="clip0_17_1334">
<rect width="274" height="79.5484" fill="white"/>
</clipPath>
</defs>
</svg>
